<svg xmlns="http://www.w3.org/2000/svg" version="1.1" xmlns:xlink="http://www.w3.org/1999/xlink" xmlns:svgjs="http://svgjs.dev/svgjs" width="1500" height="465" viewBox="0 0 1500 465"><g transform="matrix(1,0,0,1,-0.9090909090909918,-0.30073178694809144)"><svg viewBox="0 0 396 123" data-background-color="#ffffff" preserveAspectRatio="xMidYMid meet" height="465" width="1500" xmlns="http://www.w3.org/2000/svg" xmlns:xlink="http://www.w3.org/1999/xlink"><g id="tight-bounds" transform="matrix(1,0,0,1,0.2400000000000091,0.07954840816046271)"><svg viewBox="0 0 395.52 122.37090334380494" height="122.37090334380494" width="395.52"><g><svg viewBox="0 0 682.8307051014592 211.26266741037833" height="122.37090334380494" width="395.52"><g transform="matrix(1,0,0,1,287.31070510145923,14.81450967085442)"><svg viewBox="0 0 395.52 181.6336480686695" height="181.6336480686695" width="395.52"><g id="textblocktransform"><svg viewBox="0 0 395.52 181.6336480686695" height="181.6336480686695" width="395.52" id="textblock"><g><svg viewBox="0 0 395.52 181.6336480686695" height="181.6336480686695" width="395.52"><g transform="matrix(1,0,0,1,0,0)"><svg width="395.52" viewBox="0.45 -36.5 104.84 48.15" height="181.6336480686695" data-palette-color="#0074d9"><path d="M14.3 0.55L14.3 0.55Q12.05 0.55 11.6-0.75L11.6-0.75 1.65-32.05Q1.5-32.6 1.2-33.27 0.9-33.95 0.45-34.35L0.45-34.35Q0.85-34.75 1.43-35.02 2-35.3 2.95-35.3L2.95-35.3Q5.1-35.3 5.5-33.7L5.5-33.7 15.4-0.3 14.1-0.3 23.4-32.15Q23.5-32.5 23.6-32.95 23.7-33.4 23.7-33.75L23.7-33.75Q23.7-34.1 23.63-34.4 23.55-34.7 23.4-34.9L23.4-34.9Q23.85-35.1 24.33-35.2 24.8-35.3 25.5-35.3L25.5-35.3Q26.7-35.3 27.3-34.85 27.9-34.4 27.85-33.5L27.85-33.5Q27.85-33.05 27.73-32.43 27.6-31.8 27.4-31.2L27.4-31.2 17-0.1Q16.2 0.25 15.5 0.4 14.8 0.55 14.3 0.55ZM39.7 11.65L39.7 11.65Q37.55 11.65 35.6 11.13 33.65 10.6 32.4 9.43 31.15 8.25 31.15 6.25L31.15 6.25Q31.15 4.85 31.97 3.9 32.8 2.95 34.15 2.95L34.15 2.95Q35.5 2.95 36.1 3.7L36.1 3.7Q35.35 4.15 35.1 4.85 34.85 5.55 34.85 6.05L34.85 6.05Q34.85 7.45 35.57 8.3 36.3 9.15 37.4 9.55 38.5 9.95 39.7 9.95L39.7 9.95Q43.85 9.95 45.77 6.8 47.7 3.65 47.7-2.4L47.7-2.4Q47.7-3.25 47.75-4.38 47.8-5.5 47.9-6.63 48-7.75 48.05-8.75L48.05-8.75 48.6-9.55Q48.1-4.95 45.72-2.25 43.35 0.45 39.2 0.45L39.2 0.45Q35.45 0.45 33.55-1.93 31.65-4.3 31.6-10.05L31.6-10.05 31.6-19.75Q31.6-21.15 31.47-22.58 31.35-24 30.95-25.15L30.95-25.15Q31.4-25.45 31.92-25.75 32.45-26.05 33.3-26.05L33.3-26.05Q34.3-26.05 34.92-25.48 35.55-24.9 35.55-23.8L35.55-23.8 35.6-10.55Q35.6-6 36.65-3.9 37.7-1.8 40.25-1.8L40.25-1.8Q41.65-1.8 42.92-2.45 44.2-3.1 45.25-4.5 46.3-5.9 46.9-8.18 47.5-10.45 47.5-13.7L47.5-13.7Q47.5-16.65 47.47-18.55 47.45-20.45 47.4-21.65 47.35-22.85 47.2-23.65 47.05-24.45 46.8-25.15L46.8-25.15Q47.1-25.4 47.67-25.73 48.25-26.05 49.1-26.05L49.1-26.05Q50.1-26.05 50.75-25.43 51.4-24.8 51.4-23.65L51.4-23.65 51.45-2.45Q51.45 2.8 49.92 5.9 48.4 9 45.75 10.33 43.1 11.65 39.7 11.65ZM68.59 0.65L68.59 0.65Q66.95 0.65 65.09 0.33 63.25 0 61.57-0.73 59.9-1.45 58.7-2.7L58.7-2.7 58.7-34.3Q58.7-35.35 59.32-35.93 59.95-36.5 60.9-36.5L60.9-36.5Q61.8-36.5 62.42-36.18 63.05-35.85 63.35-35.6L63.35-35.6Q63.1-34.55 62.95-33.15 62.8-31.75 62.75-30.45 62.7-29.15 62.7-28.3L62.7-28.3 62.7-19.75Q63.3-21.55 64.5-22.98 65.7-24.4 67.4-25.23 69.09-26.05 71.2-26.05L71.2-26.05Q73.9-26.05 75.82-24.78 77.75-23.5 78.8-20.83 79.84-18.15 79.84-13.8L79.84-13.8Q79.84-10.75 79.22-8.13 78.59-5.5 77.25-3.53 75.9-1.55 73.75-0.45 71.59 0.65 68.59 0.65ZM68.45-1.35L68.45-1.35Q70.75-1.4 72.15-2.53 73.55-3.65 74.32-5.48 75.09-7.3 75.37-9.47 75.65-11.65 75.65-13.8L75.65-13.8Q75.65-18.95 74.32-21.3 73-23.65 70.45-23.65L70.45-23.65Q68.3-23.65 66.82-22.53 65.34-21.4 64.42-19.6 63.5-17.8 63.1-15.7 62.7-13.6 62.7-11.65L62.7-11.65 62.7-3.3Q63.15-2.75 64.07-2.3 65-1.85 66.15-1.6 67.3-1.35 68.45-1.35ZM95.94 0.65L95.94 0.65Q90.54 0.65 87.39-2.73 84.24-6.1 84.24-12.55L84.24-12.55Q84.24-18.8 87.32-22.43 90.39-26.05 96.14-26.05L96.14-26.05Q98.84-26.05 100.89-25.23 102.94-24.4 104.12-22.8 105.29-21.2 105.29-18.85L105.29-18.85Q105.29-15.1 102.27-13.18 99.24-11.25 93.94-11.25L93.94-11.25Q91.84-11.25 89.94-11.43 88.04-11.6 86.09-12L86.09-12 86.19-13.65Q87.44-13.4 89.12-13.25 90.79-13.1 92.39-13.05L92.39-13.05Q94.14-13.05 95.72-13.35 97.29-13.65 98.49-14.35 99.69-15.05 100.37-16.28 101.04-17.5 101.04-19.35L101.04-19.35Q101.04-21.3 100.29-22.35 99.54-23.4 98.39-23.83 97.24-24.25 95.99-24.25L95.99-24.25Q92.64-24.25 90.57-21.43 88.49-18.6 88.49-13.05L88.49-13.05Q88.49-8.9 89.62-6.53 90.74-4.15 92.64-3.13 94.54-2.1 96.89-2.1L96.89-2.1Q99.59-2.1 101.64-3.23 103.69-4.35 104.39-6.45L104.39-6.45Q104.89-6.25 105.12-5.73 105.34-5.2 104.84-3.95L104.84-3.95Q103.89-1.7 101.49-0.53 99.09 0.65 95.94 0.65Z" opacity="1" transform="matrix(1,0,0,1,0,0)" fill="#0074d9" class="wordmark-text-0" data-fill-palette-color="primary" id="text-0"></path></svg></g></svg></g></svg></g></svg></g><g><svg viewBox="0 0 244.43135999999998 211.26266741037833" height="211.26266741037833" width="244.43135999999998"><g><svg xmlns="http://www.w3.org/2000/svg" xmlns:xlink="http://www.w3.org/1999/xlink" version="1.1" x="0" y="0" viewBox="18.096 22.424 63.81099999999999 55.15201515109866" enable-background="new 0 0 100 100" xml:space="preserve" height="211.26266741037833" width="244.43135999999998" class="icon-icon-0" data-fill-palette-color="accent" id="icon-0"><g fill="#0074d9" data-fill-palette-color="accent"><path d="M39.723 22.424C33.871 22.424 28.556 23.541 24.655 25.41 20.866 27.224 18.294 29.82 18.152 32.89 18.152 32.918 18.124 32.918 18.124 32.946V32.974C18.096 33.03 18.096 33.114 18.096 33.197V59.713C18.096 62.896 20.725 65.574 24.627 67.473 28.557 69.343 33.872 70.459 39.724 70.459 41.93 70.459 44.05 70.291 46.057 69.984A20.02 20.02 0 0 0 61.777 77.576C72.888 77.576 81.907 68.533 81.907 57.425 81.907 46.288 72.888 37.245 61.777 37.245H61.297V33.197C61.325 33.114 61.297 33.03 61.297 32.974V32.918C61.269 32.918 61.269 32.89 61.269 32.862 61.1 29.819 58.527 27.223 54.767 25.409 50.834 23.541 45.575 22.424 39.723 22.424M39.723 24.015C45.35 24.015 50.439 25.132 54.058 26.863 57.592 28.565 59.627 30.799 59.712 33.059V33.198C59.712 34.817 58.694 36.464 56.8 37.887 56.8 37.915 56.772 37.887 56.772 37.887A20.6 20.6 0 0 0 50.128 40.985C47.074 41.85 43.54 42.381 39.723 42.381 34.069 42.381 28.952 41.292 25.332 39.533 21.939 37.915 19.933 35.793 19.706 33.644V33.197C19.706 33.114 19.678 33.058 19.678 33.002 19.791 30.77 21.799 28.564 25.332 26.862 28.951 25.132 34.068 24.015 39.723 24.015M59.712 37.272V37.356H59.627zM19.706 37.301C20.837 38.724 22.561 39.981 24.654 40.985 28.555 42.855 33.871 43.972 39.722 43.972 42.437 43.972 45.037 43.748 47.441 43.274 45.321 45.451 43.681 48.075 42.719 51.005 41.73 51.089 40.712 51.145 39.695 51.145 34.04 51.145 28.951 50.056 25.332 48.298 21.714 46.568 19.706 44.278 19.706 41.962zM61.775 38.836C72.039 38.836 80.322 47.153 80.322 57.425S72.039 76.013 61.775 76.013C51.541 76.013 43.256 67.696 43.256 57.425 43.257 47.153 51.541 38.836 61.775 38.836M19.706 46.093C20.837 47.516 22.561 48.744 24.626 49.749 28.527 51.619 33.843 52.708 39.695 52.708 40.571 52.708 41.391 52.68 42.239 52.624A20.7 20.7 0 0 0 41.674 57.425C41.674 58.43 41.731 59.435 41.872 60.383 41.165 60.439 40.43 60.467 39.695 60.467 34.04 60.467 28.951 59.351 25.332 57.62S19.706 53.573 19.706 51.256zM19.706 55.387C20.837 56.811 22.561 58.039 24.626 59.043 28.527 60.913 33.843 62.03 39.695 62.03 40.543 62.03 41.335 62.03 42.154 61.973 42.719 64.346 43.681 66.578 45.009 68.533A40 40 0 0 1 39.722 68.895C34.068 68.895 28.951 67.807 25.331 66.048 21.713 64.318 19.705 62.029 19.705 59.712z" fill="#0074d9" data-fill-palette-color="accent"></path></g></svg></g></svg></g></svg></g><defs></defs></svg><rect width="395.52" height="122.37090334380494" fill="none" stroke="none" visibility="hidden"></rect></g></svg></g></svg>